<svg id="MDI_account-switch-outline" data-name="MDI / account-switch-outline" xmlns="http://www.w3.org/2000/svg" width="30" height="30" viewBox="0 0 30 30">
  <g id="Boundary" fill="#fa7e61" stroke="rgba(0,0,0,0)" stroke-width="1" opacity="0">
    <rect width="30" height="30" stroke="none"/>
    <rect x="0.5" y="0.5" width="29" height="29" fill="none"/>
  </g>
  <path id="Path_account-switch-outline" data-name="Path / account-switch-outline" d="M20.2,11.182c7.8,0,7.8,5.091,7.8,5.091v2.545H20.2V16.273A7.3,7.3,0,0,0,18.7,12.2a6.754,6.754,0,0,0-.78-.84,14.973,14.973,0,0,1,2.275-.178M9.8,13.727c4.55,0,5.122,1.985,5.2,2.545H4.6c.078-.56.65-2.545,5.2-2.545m0-2.545C2,11.182,2,16.273,2,16.273v2.545H17.6V16.273s0-5.091-7.8-5.091m1.3,10.182v2.545h7.8V21.364l3.9,3.818L18.9,29V26.455H11.1V29L7.2,25.182l3.9-3.818M9.8,3.545A1.273,1.273,0,1,1,8.5,4.818,1.29,1.29,0,0,1,9.8,3.545M9.8,1A3.855,3.855,0,0,0,5.9,4.818a3.9,3.9,0,0,0,7.8,0A3.855,3.855,0,0,0,9.8,1M20.2,1a3.855,3.855,0,0,0-3.9,3.818,3.9,3.9,0,0,0,7.8,0A3.855,3.855,0,0,0,20.2,1Z" transform="translate(0)" fill="#fa7e61"/>
</svg>
