<svg xmlns="http://www.w3.org/2000/svg" width="24" height="24" viewBox="0 0 24 24">
  <g id="MDI_account-multiple-plus-outline" data-name="MDI / account-multiple-plus-outline" opacity="0.7">
    <g id="Boundary" fill="#58355e" stroke="rgba(0,0,0,0)" stroke-width="1" opacity="0">
      <rect width="24" height="24" stroke="none"/>
      <rect x="0.5" y="0.5" width="23" height="23" fill="none"/>
    </g>
    <path id="Path_account-multiple-plus-outline" data-name="Path / account-multiple-plus-outline" d="M13,11a3,3,0,1,0-3-3,3,3,0,0,0,3,3m0-4a1,1,0,1,1-1,1,1,1,0,0,1,1-1m4.11,3.86a5,5,0,0,0,0-5.72A2.91,2.91,0,0,1,18,5a3,3,0,0,1,0,6,2.91,2.91,0,0,1-.89-.14M13,13c-6,0-6,4-6,4v2H19V17s0-4-6-4M9,17c0-.29.32-2,4-2,3.5,0,3.94,1.56,4,2m7,0v2H21V17a5.6,5.6,0,0,0-1.8-3.94C24,13.55,24,17,24,17M8,12H5v3H3V12H0V10H3V7H5v3H8Z" fill="#58355e"/>
  </g>
</svg>
