<svg xmlns="http://www.w3.org/2000/svg" width="24" height="24" viewBox="0 0 24 24">
  <g id="MDI_calendar-month-outline" data-name="MDI / calendar-month-outline" opacity="0.7">
    <g id="Boundary" fill="#58355e" stroke="rgba(0,0,0,0)" stroke-width="1" opacity="0">
      <rect width="24" height="24" stroke="none"/>
      <rect x="0.5" y="0.5" width="23" height="23" fill="none"/>
    </g>
    <path id="Path_calendar-month-outline" data-name="Path / calendar-month-outline" d="M7,12H9v2H7V12M21,6V20a2,2,0,0,1-2,2H5a2,2,0,0,1-2-2V6A2,2,0,0,1,5,4H6V2H8V4h8V2h2V4h1a2,2,0,0,1,2,2M5,8H19V6H5V8M19,20V10H5V20H19m-4-6V12h2v2H15m-4,0V12h2v2H11M7,16H9v2H7V16m8,2V16h2v2H15m-4,0V16h2v2Z" fill="#58355e"/>
  </g>
</svg>
