<svg id="GRI_Master_Logo-solo" xmlns="http://www.w3.org/2000/svg" width="67.402" height="67.402" viewBox="0 0 67.402 67.402">
  <path id="Caminho_25" data-name="Caminho 25" d="M67.4,33.7A33.7,33.7,0,1,1,33.7,0,33.7,33.7,0,0,1,67.4,33.7Z" transform="translate(0 0)" fill="#fff"/>
  <path id="Caminho_26" data-name="Caminho 26" d="M350.833,316.532h3.245v16.58h-3.245Zm-24.494,12.21h2.229a4.909,4.909,0,0,1-3.75,1.593,5.514,5.514,0,1,1,5.175-7.418h3.373a8.758,8.758,0,1,0-8.548,10.663,7.764,7.764,0,0,0,5.5-2.113v1.644h3.049v-7.418h-7.027v3.049Zm16-8.965H339.1V324.3h3.233a2.262,2.262,0,1,0,0-4.524Zm-1.318,7.769H339.1v5.566h-3.245v-16.58h6.478a5.507,5.507,0,0,1,2.287,10.516l3.718,6.064h-3.91l-3.413-5.566Z" transform="translate(-291.116 -291.12)" fill="#58355e"/>
</svg>
