<svg xmlns="http://www.w3.org/2000/svg" width="40" height="40" viewBox="0 0 40 40">
  <g id="MDI_notebook-outline" data-name="MDI / notebook-outline" opacity="0.6">
    <g id="Boundary" fill="#fa7e61" stroke="rgba(0,0,0,0)" stroke-width="1" opacity="0">
      <rect width="40" height="40" stroke="none"/>
      <rect x="0.5" y="0.5" width="39" height="39" fill="none"/>
    </g>
    <path id="Path_notebook-outline" data-name="Path / notebook-outline" d="M29.444,5.6V16.4l-3.778-3.6-3.778,3.6V5.6H14.333V34.4H33.222V5.6H29.444M3,11V7.4H6.778V5.6A3.691,3.691,0,0,1,10.556,2H33.222A3.829,3.829,0,0,1,37,5.6V34.4A3.829,3.829,0,0,1,33.222,38H10.556a3.829,3.829,0,0,1-3.778-3.6V32.6H3V29H6.778V21.8H3V18.2H6.778V11H3M6.778,7.4V11h3.778V7.4H6.778m0,25.2h3.778V29H6.778v3.6m0-10.8h3.778V18.2H6.778Z" transform="translate(0 0)" fill="#fa7e61"/>
  </g>
</svg>
