<svg id="MDI_package-variant" data-name="MDI / package-variant" xmlns="http://www.w3.org/2000/svg" width="30" height="30" viewBox="0 0 30 30">
  <g id="Boundary" fill="#fa7e61" stroke="rgba(0,0,0,0)" stroke-width="1" opacity="0">
    <rect width="30" height="30" stroke="none"/>
    <rect x="0.5" y="0.5" width="29" height="29" fill="none"/>
  </g>
  <path id="Path_package-variant" data-name="Path / package-variant" d="M2.146,13.648a1.288,1.288,0,0,1-.476-1.781L3.6,8.5a1.231,1.231,0,0,1,.6-.546l10.067-5.72a1.264,1.264,0,0,1,1.466,0L25.891,8.006a1.27,1.27,0,0,1,.566.6l1.864,3.276a1.3,1.3,0,0,1-.463,1.768l-1.286.754V20.85a1.291,1.291,0,0,1-.681,1.144L15.735,27.766a1.264,1.264,0,0,1-1.466,0L4.113,21.994a1.291,1.291,0,0,1-.681-1.144v-7.2a1.3,1.3,0,0,1-1.286,0M15,4.795h0v8.71h0L22.664,9.15,15,4.795M6,20.083l7.714,4.394V15.754L6,11.373v8.71m18,0V15.9l-6.428,3.77a1.33,1.33,0,0,1-1.286.013v4.8L24,20.083M17.38,16.768l8.074-4.719-.746-1.313-8.074,4.719Z" transform="translate(-0.49 0)" fill="#fa7e61"/>
</svg>
