<svg xmlns="http://www.w3.org/2000/svg" width="30" height="30" viewBox="0 0 30 30">
  <g id="MDI_page-next-outline" data-name="MDI / page-next-outline" transform="translate(0 0.083)">
    <g id="Boundary" transform="translate(0 -0.083)" fill="#fa7e61" stroke="rgba(0,0,0,0)" stroke-width="1" opacity="0">
      <rect width="30" height="30" stroke="none"/>
      <rect x="0.5" y="0.5" width="29" height="29" fill="none"/>
    </g>
    <path id="Path_page-next-outline" data-name="Path / page-next-outline" d="M27.416,3H6.231A2.366,2.366,0,0,0,3.739,5.215V9.644H6.231V5.215H27.416v15.5H6.231V16.287H3.739v4.429a2.366,2.366,0,0,0,2.492,2.215H27.416a2.366,2.366,0,0,0,2.492-2.215V5.215A2.366,2.366,0,0,0,27.416,3M8.723,16.287V14.073H0V11.858H8.723V9.644l4.985,3.322L8.723,16.287m16.2-2.215H16.2V11.858h8.723v2.215m0-4.429H16.2V7.429h8.723V9.644M21.185,18.5H16.2V16.287h4.985Z" transform="translate(0 1.998)" fill="#fa7e61"/>
  </g>
</svg>
