<svg id="Componente_33_1" data-name="Componente 33 – 1" xmlns="http://www.w3.org/2000/svg" width="82.974" height="19.441" viewBox="0 0 82.974 19.441">
  <path id="Caminho_59" data-name="Caminho 59" d="M1508.547,15.508l.307,1.269a4.164,4.164,0,0,1,3.213-1.514,2.72,2.72,0,0,1,2.639,1.453,4.668,4.668,0,0,1,3.417-1.453c2,0,3.089,1.207,3.089,3.54V26.33h-3.478V19.517c0-.88-.2-1.35-1.023-1.35a2.3,2.3,0,0,0-1.514.716V26.33h-3.478V19.64c0-.921-.123-1.473-.942-1.473a2.414,2.414,0,0,0-1.616.757V26.33h-3.478V15.508Z" transform="translate(-1438.238 -11.115)" fill="#fff"/>
  <path id="Caminho_58" data-name="Caminho 58" d="M1471.06,15.262c3.171,0,5.626,1.862,5.626,5.647s-2.537,5.688-5.831,5.688c-3.355,0-5.524-1.9-5.524-5.605,0-3.847,2.557-5.729,5.729-5.729m-.041,8.491c1.166,0,2.005-.757,2.005-2.844,0-2.046-.818-2.844-2.005-2.844-1.207,0-2.025.88-2.025,2.844,0,2.087.819,2.844,2.025,2.844" transform="translate(-1411.199 -11.115)" fill="#fff"/>
  <path id="Caminho_57" data-name="Caminho 57" d="M1440.616,25.021a7.511,7.511,0,0,1-4.665,1.575c-3.11,0-5.36-1.964-5.36-5.626,0-3.376,2.148-5.708,5.5-5.708,2.925,0,4.685,1.534,4.726,4.542h-2.885c-.081-1.228-.716-1.739-1.677-1.739-1.228,0-2.005.819-2.005,2.783,0,1.862.818,3.007,2.332,3.007a6.577,6.577,0,0,0,3.11-.941Z" transform="translate(-1387.608 -11.115)" fill="#fff"/>
  <g id="Grupo_120" data-name="Grupo 120" transform="translate(-707 -4567.365)">
    <path id="Caminho_53" data-name="Caminho 53" d="M1401.49,49.193a2.422,2.422,0,1,1-2.421-2.422,2.421,2.421,0,0,1,2.421,2.422" transform="translate(-657.557 4534.853)" fill="#ed7203"/>
    <path id="Caminho_54" data-name="Caminho 54" d="M1401.49,4.763a2.422,2.422,0,1,1-2.421-2.422,2.422,2.422,0,0,1,2.421,2.422" transform="translate(-657.557 4565.024)" fill="#ed7203"/>
    <path id="Caminho_55" data-name="Caminho 55" d="M1401.49,26.98a2.422,2.422,0,1,1-2.421-2.422,2.421,2.421,0,0,1,2.421,2.422" transform="translate(-657.557 4549.938)" fill="#ed7203"/>
  </g>
  <path id="Caminho_56" data-name="Caminho 56" d="M1322.706,11.427V8.874h-1.785V5.615h-3.114l-.332,3.28-1.557.539v1.993h1.495v5.936a2.48,2.48,0,0,0,2.8,2.761,8.069,8.069,0,0,0,2.636-.436l-.312-2.366a3.22,3.22,0,0,1-.893.145c-.5,0-.727-.208-.727-.768V11.427Zm-15.049,12.579V18.941a4.346,4.346,0,0,0,3.01,1.162c3.03,0,4.608-2.138,4.608-5.812,0-3.923-1.931-5.667-4.4-5.667a4.54,4.54,0,0,0-3.466,1.515l-.395-1.266h-2.885V24.006Zm0-11.479a3.147,3.147,0,0,1,2.034-1.038c1.266,0,1.826.976,1.826,2.927,0,2.055-.747,2.823-1.868,2.823a3.19,3.19,0,0,1-1.993-.872Zm-8.241-3.653h-2.761V19.854h3.529V12.839a2.554,2.554,0,0,1,1.764-.976,3.337,3.337,0,0,1,1.121.166l.249-3.155a2.567,2.567,0,0,0-3.529,1.474Z" transform="translate(-1296.656 -4.564)" fill="#ed7203"/>
</svg>
