<svg id="Componente_32_1" data-name="Componente 32 – 1" xmlns="http://www.w3.org/2000/svg" xmlns:xlink="http://www.w3.org/1999/xlink" width="137.621" height="20.944" viewBox="0 0 137.621 20.944">
  <defs>
    <clipPath id="clip-path">
      <rect id="Retângulo_141" data-name="Retângulo 141" width="137.621" height="20.944" fill="#fff"/>
    </clipPath>
  </defs>
  <g id="Grupo_109" data-name="Grupo 109" clip-path="url(#clip-path)">
    <path id="Caminho_43" data-name="Caminho 43" d="M852.218,51.009a2.422,2.422,0,1,1-2.421-2.422,2.421,2.421,0,0,1,2.421,2.422" transform="translate(-815.284 -32.995)" fill="#008e88"/>
    <path id="Caminho_44" data-name="Caminho 44" d="M852.218,6.579A2.422,2.422,0,1,1,849.8,4.157a2.422,2.422,0,0,1,2.421,2.422" transform="translate(-815.284 -2.823)" fill="#008e88"/>
    <path id="Caminho_45" data-name="Caminho 45" d="M852.218,28.8a2.422,2.422,0,1,1-2.421-2.422,2.421,2.421,0,0,1,2.421,2.422" transform="translate(-815.284 -17.91)" fill="#008e88"/>
    <path id="Caminho_46" data-name="Caminho 46" d="M975.794,9.528c0-2.948-1.619-4.172-4.588-4.172a8.285,8.285,0,0,0-4.795,1.578l1.1,2.1a6.458,6.458,0,0,1,3.2-.955,1.363,1.363,0,0,1,1.557,1.515v.6a9.865,9.865,0,0,0-1.432-.083c-3.549,0-4.961,1.577-4.961,3.466,0,2.221,1.453,3.28,3.466,3.28A3.992,3.992,0,0,0,972.68,15.3l.311,1.287h2.8ZM972.265,12.7a1.656,1.656,0,0,1-1.64,1.744c-.872,0-1.287-.394-1.287-1.038,0-1.038.851-1.308,1.91-1.308a4.651,4.651,0,0,1,1.017.1ZM964.4,5.6h-3.529V16.585H964.4Zm-3.737-2.719c0,1.079.914,1.66,2.034,1.66,1.2,0,2.055-.581,2.055-1.66,0-1.142-.851-1.723-2.055-1.723-1.142,0-2.034.581-2.034,1.723m-5.313,10.109a2.577,2.577,0,0,1-1.889.851c-1.391,0-1.993-1.017-1.993-2.761,0-1.91.706-2.823,1.909-2.823a2.88,2.88,0,0,1,1.972.872ZM958.877,5.6h-2.885l-.249,1.225a4.437,4.437,0,0,0-3.259-1.474c-3.072,0-4.733,2.366-4.733,5.936,0,3.612,1.764,5.4,4.525,5.4a3.991,3.991,0,0,0,3.217-1.474v.643c0,1.827-.747,2.366-2.387,2.366a14.38,14.38,0,0,1-3.279-.457l-.519,2.47a12.194,12.194,0,0,0,4.089.706c3.757,0,5.48-1.287,5.48-5.169ZM939.241,3.114,940.59,4.65l3.674-2.678L942.645,0Zm.706,6.85a1.924,1.924,0,0,1,1.868-1.993c1.224,0,1.619.872,1.619,1.993Zm5.5,3.3a7.694,7.694,0,0,1-3.238.81,2.091,2.091,0,0,1-2.263-1.972h6.767c.042-.249.062-1.245.062-1.557,0-3.487-1.806-5.189-5-5.189-3.425,0-5.563,2.283-5.563,5.833,0,3.57,2.034,5.667,5.521,5.667a8.233,8.233,0,0,0,4.629-1.391Zm-10-5.106V5.6h-1.785V2.346h-3.114l-.332,3.28-1.557.539V8.158h1.495v5.936a2.48,2.48,0,0,0,2.8,2.761,8.067,8.067,0,0,0,2.636-.436l-.311-2.366a3.208,3.208,0,0,1-.893.145c-.5,0-.727-.208-.727-.768V8.158Zm-7.68,1.37c0-2.948-1.619-4.172-4.588-4.172a8.285,8.285,0,0,0-4.795,1.578l1.1,2.1a6.459,6.459,0,0,1,3.2-.955,1.363,1.363,0,0,1,1.557,1.515v.6a9.868,9.868,0,0,0-1.432-.083c-3.549,0-4.961,1.577-4.961,3.466,0,2.221,1.453,3.28,3.466,3.28a3.992,3.992,0,0,0,3.342-1.557l.311,1.287h2.8ZM924.233,12.7a1.655,1.655,0,0,1-1.64,1.744c-.872,0-1.287-.394-1.287-1.038,0-1.038.851-1.308,1.91-1.308a4.652,4.652,0,0,1,1.017.1ZM913.668,5.6h-2.761V16.585h3.529V9.569a2.554,2.554,0,0,1,1.764-.976,3.334,3.334,0,0,1,1.121.166L917.57,5.6a2.567,2.567,0,0,0-3.529,1.474Zm-4.027,2.553V5.6h-1.785V2.346h-3.114l-.332,3.28-1.557.539V8.158h1.495v5.936a2.48,2.48,0,0,0,2.8,2.761,8.066,8.066,0,0,0,2.636-.436l-.311-2.366a3.208,3.208,0,0,1-.893.145c-.5,0-.727-.208-.727-.768V8.158Zm-17.249,6.684a7.377,7.377,0,0,0,5.148,2.013c2.8,0,4.567-1.329,4.567-3.736,0-1.951-1.1-2.719-3.342-3.383-1.557-.457-2.076-.623-2.076-1.121,0-.457.374-.664,1.08-.664a6.231,6.231,0,0,1,2.927,1.059l1.453-1.889a6.606,6.606,0,0,0-4.608-1.764c-2.781,0-4.566,1.391-4.566,3.591,0,1.993,1.183,2.885,3.466,3.425,1.536.374,1.868.581,1.868,1.121,0,.415-.311.706-1.1.706a7.029,7.029,0,0,1-3.383-1.308Zm-7.576-4.878a1.924,1.924,0,0,1,1.868-1.993c1.225,0,1.619.872,1.619,1.993Zm5.5,3.3a7.694,7.694,0,0,1-3.238.81,2.091,2.091,0,0,1-2.263-1.972h6.767c.042-.249.063-1.245.063-1.557,0-3.487-1.806-5.189-5-5.189-3.425,0-5.563,2.283-5.563,5.833,0,3.57,2.034,5.667,5.521,5.667a8.232,8.232,0,0,0,4.629-1.391Z" transform="translate(-838.173)" fill="#fff"/>
    <path id="Caminho_47" data-name="Caminho 47" d="M773.433,13.243V10.69h-1.785V7.431h-3.114l-.332,3.28-1.557.539v1.993h1.494V19.18a2.48,2.48,0,0,0,2.8,2.761,8.069,8.069,0,0,0,2.636-.436l-.312-2.366a3.22,3.22,0,0,1-.893.145c-.5,0-.727-.208-.727-.768V13.243ZM758.384,25.822V20.757a4.347,4.347,0,0,0,3.01,1.162c3.03,0,4.608-2.138,4.608-5.812,0-3.923-1.931-5.666-4.4-5.666a4.54,4.54,0,0,0-3.466,1.515l-.394-1.266h-2.885V25.822Zm0-11.479a3.147,3.147,0,0,1,2.034-1.038c1.266,0,1.826.976,1.826,2.927,0,2.055-.747,2.823-1.868,2.823a3.191,3.191,0,0,1-1.993-.872Zm-8.241-3.653h-2.761V21.67h3.529V14.655a2.555,2.555,0,0,1,1.764-.976,3.336,3.336,0,0,1,1.121.166l.249-3.155a2.567,2.567,0,0,0-3.529,1.474Z" transform="translate(-747.383 -5.046)" fill="#008e88"/>
  </g>
</svg>
