<svg xmlns="http://www.w3.org/2000/svg" xmlns:xlink="http://www.w3.org/1999/xlink" width="120" height="30.356" viewBox="0 0 120 30.356">
  <defs>
    <clipPath id="clip-path">
      <rect id="Retângulo_5" data-name="Retângulo 5" width="120" height="30.356" fill="#78407d"/>
    </clipPath>
  </defs>
  <g id="Grupo_4" data-name="Grupo 4" transform="translate(-724.811 349)">
    <g id="Grupo_3" data-name="Grupo 3" transform="translate(724.811 -349)" clip-path="url(#clip-path)">
      <path id="Caminho_1" data-name="Caminho 1" d="M107.747,48.438A3.75,3.75,0,1,1,104,44.688a3.749,3.749,0,0,1,3.749,3.75" transform="translate(-50.437 -22.484)" fill="#78407d"/>
      <path id="Caminho_2" data-name="Caminho 2" d="M107.747,48.438A3.75,3.75,0,1,1,104,44.688a3.749,3.749,0,0,1,3.749,3.75" transform="translate(-50.437 -22.484)" fill="#78407d" stroke="#78407d" stroke-width="0.514"/>
      <path id="Caminho_3" data-name="Caminho 3" d="M107.747,4.007A3.75,3.75,0,1,1,104,.257a3.75,3.75,0,0,1,3.749,3.75" transform="translate(-50.437 -0.129)" fill="#78407d"/>
      <path id="Caminho_4" data-name="Caminho 4" d="M107.747,4.007A3.75,3.75,0,1,1,104,.257a3.75,3.75,0,0,1,3.749,3.75" transform="translate(-50.437 -0.129)" fill="#78407d" stroke="#78407d" stroke-width="0.514"/>
      <path id="Caminho_5" data-name="Caminho 5" d="M107.747,26.224A3.75,3.75,0,1,1,104,22.474a3.749,3.749,0,0,1,3.749,3.75" transform="translate(-50.437 -11.307)" fill="#78407d"/>
      <path id="Caminho_6" data-name="Caminho 6" d="M107.747,26.224A3.75,3.75,0,1,1,104,22.474a3.749,3.749,0,0,1,3.749,3.75" transform="translate(-50.437 -11.307)" fill="#78407d" stroke="#78407d" stroke-width="0.514"/>
      <path id="Caminho_7" data-name="Caminho 7" d="M187.4,24.349v-17h-5.431v11.7A3.633,3.633,0,0,1,179.2,20.3c-1.478,0-1.992-.964-1.992-2.667V7.348h-5.5V18.982c0,3.664,1.7,5.785,5.528,5.785a6.632,6.632,0,0,0,5.206-2.443l.578,2.025Zm-23.813-5.5a3.883,3.883,0,0,1-2.892,1.446c-2.346,0-3.117-1.9-3.117-4.467,0-3.021,1.125-4.371,3.053-4.371a4.193,4.193,0,0,1,2.957,1.318Zm.675,5.5h4.789V1.21h-5.431V8.826a6.449,6.449,0,0,0-4.564-1.864c-3.921,0-7.231,2.956-7.231,8.934,0,5.592,2.314,8.87,7.006,8.87a6.054,6.054,0,0,0,5.11-2.475ZM139.738,14.1a2.978,2.978,0,0,1,2.892-3.085c1.9,0,2.507,1.349,2.507,3.085Zm8.516,5.11a11.912,11.912,0,0,1-5.013,1.254,3.237,3.237,0,0,1-3.5-3.053h10.476c.065-.386.1-1.928.1-2.41,0-5.4-2.8-8.034-7.745-8.034-5.3,0-8.613,3.535-8.613,9.03,0,5.528,3.15,8.774,8.549,8.774a12.745,12.745,0,0,0,7.167-2.153Z" transform="translate(-67.397 -0.609)" fill="#4d4d4f"/>
      <path id="Caminho_8" data-name="Caminho 8" d="M40.589,12.531V8.578H37.825V3.532H33L32.49,8.61l-2.41.835v3.086h2.314v9.191c0,2.635,1.318,4.275,4.339,4.275a12.493,12.493,0,0,0,4.082-.675l-.482-3.663a4.985,4.985,0,0,1-1.382.225c-.771,0-1.125-.321-1.125-1.189V12.531Zm-23.3,19.475V24.164a6.73,6.73,0,0,0,4.66,1.8c4.692,0,7.134-3.31,7.134-9,0-6.074-2.989-8.774-6.813-8.774A7.029,7.029,0,0,0,16.9,10.538l-.611-1.96H11.826V32.006Zm0-17.772a4.872,4.872,0,0,1,3.15-1.607c1.96,0,2.828,1.51,2.828,4.531,0,3.181-1.157,4.37-2.892,4.37a4.939,4.939,0,0,1-3.085-1.35ZM4.531,8.578H.257v17H5.72V14.716a3.956,3.956,0,0,1,2.732-1.51,5.164,5.164,0,0,1,1.736.257l.386-4.885a4.489,4.489,0,0,0-1.8-.386,4.521,4.521,0,0,0-3.664,2.667Z" transform="translate(-0.129 -1.777)" fill="#78407d"/>
      <path id="Caminho_9" data-name="Caminho 9" d="M40.589,12.531V8.578H37.825V3.532H33L32.49,8.61l-2.41.835v3.086h2.314v9.191c0,2.635,1.318,4.275,4.339,4.275a12.493,12.493,0,0,0,4.082-.675l-.482-3.663a4.985,4.985,0,0,1-1.382.225c-.771,0-1.125-.321-1.125-1.189V12.531Zm-23.3,19.475V24.164a6.73,6.73,0,0,0,4.66,1.8c4.692,0,7.134-3.31,7.134-9,0-6.074-2.989-8.774-6.813-8.774A7.029,7.029,0,0,0,16.9,10.538l-.611-1.96H11.826V32.006Zm0-17.772a4.872,4.872,0,0,1,3.15-1.607c1.96,0,2.828,1.51,2.828,4.531,0,3.181-1.157,4.37-2.892,4.37a4.939,4.939,0,0,1-3.085-1.35ZM4.531,8.578H.257v17H5.72V14.716a3.956,3.956,0,0,1,2.732-1.51,5.164,5.164,0,0,1,1.736.257l.386-4.885a4.489,4.489,0,0,0-1.8-.386,4.521,4.521,0,0,0-3.664,2.667Z" transform="translate(-0.129 -1.777)" fill="#78407d" stroke="#78407d" stroke-width="0.514"/>
    </g>
  </g>
</svg>
