<svg id="MDI_archive-star-outline" data-name="MDI / archive-star-outline" xmlns="http://www.w3.org/2000/svg" width="30" height="30" viewBox="0 0 30 30">
  <g id="Boundary" fill="#fa7e61" stroke="rgba(0,0,0,0)" stroke-width="1" opacity="0">
    <rect width="30" height="30" stroke="none"/>
    <rect x="0.5" y="0.5" width="29" height="29" fill="none"/>
  </g>
  <path id="Path_archive-star-outline" data-name="Path / archive-star-outline" d="M22.5,16.182V12.145h2.6v4.037a8.588,8.588,0,0,0-1.3-.118,8.588,8.588,0,0,0-1.3.118m-11.05-2.73a.645.645,0,0,0-.65.653v1.96h7.8V14.1a.645.645,0,0,0-.65-.653h-6.5M6.9,23.9V12.145H4.3V26.516H16.455A7.937,7.937,0,0,1,16,23.9H6.9M26.4,10.839H3V3H26.4v7.839M23.8,5.613H5.6V8.226H23.8V5.613M29,22.453l-3.757-.327L23.8,18.677l-1.469,3.449-3.731.327,2.834,2.456L20.55,28.58l3.25-1.947,3.185,1.947-.845-3.671Z" transform="translate(-1 -1)" fill="#fa7e61"/>
</svg>
