<svg xmlns="http://www.w3.org/2000/svg" width="24" height="24" viewBox="0 0 24 24">
  <g id="MDI_briefcase-clock-outline" data-name="MDI / briefcase-clock-outline" opacity="0.7">
    <g id="Boundary" fill="#58355e" stroke="rgba(0,0,0,0)" stroke-width="1" opacity="0">
      <rect width="24" height="24" stroke="none"/>
      <rect x="0.5" y="0.5" width="23" height="23" fill="none"/>
    </g>
    <path id="Path_briefcase-clock-outline" data-name="Path / briefcase-clock-outline" d="M21,11.11V7a2,2,0,0,0-.58-1.41A1.87,1.87,0,0,0,19,5H15V3a1.9,1.9,0,0,0-.58-1.42A1.9,1.9,0,0,0,13,1H9a1.9,1.9,0,0,0-1.42.58A1.9,1.9,0,0,0,7,3V5H3a1.87,1.87,0,0,0-1.42.59A2,2,0,0,0,1,7V18a2,2,0,0,0,.58,1.41A1.87,1.87,0,0,0,3,20h7.26A7,7,0,1,0,21,11.11M9,3h4V5H9M3,18V7H19V9.68A6.84,6.84,0,0,0,16,9a7,7,0,0,0-7,7,6.91,6.91,0,0,0,.29,2M19,20a5,5,0,0,1-6,0,4.94,4.94,0,0,1-2-4,5,5,0,0,1,5-5,4.94,4.94,0,0,1,3,1,5,5,0,0,1,0,8m-4-7h1.5v2.82l2.44,1.41-.75,1.3L15,16.69V13" transform="translate(0 0.001)" fill="#58355e"/>
  </g>
</svg>
