<svg xmlns="http://www.w3.org/2000/svg" width="300" height="600" viewBox="0 0 300 600">
  <g id="Grupo_132" data-name="Grupo 132" transform="translate(-1197 -80)">
    <path id="Caminho_15" data-name="Caminho 15" d="M150,150A150,150,0,0,1,0,0H300A150,150,0,0,1,150,150" transform="translate(1347 380) rotate(90)" fill="#78407d"/>
    <path id="Caminho_20" data-name="Caminho 20" d="M150,0A150,150,0,0,0,0,150H300A150,150,0,0,0,150,0" transform="translate(1497 380) rotate(90)" fill="#937cbf" opacity="0.05"/>
    <path id="Caminho_16" data-name="Caminho 16" d="M695.31,60.5a49.616,49.616,0,1,1-49.616-49.616A49.616,49.616,0,0,1,695.31,60.5" transform="translate(644.69 69.115)" fill="#78407d"/>
  </g>
</svg>
