<svg id="MDI_clipboard-check-outline" data-name="MDI / clipboard-check-outline" xmlns="http://www.w3.org/2000/svg" width="40" height="40" viewBox="0 0 40 40">
  <g id="Boundary" fill="#ff9880" stroke="rgba(0,0,0,0)" stroke-width="1" opacity="0">
    <rect width="40" height="40" stroke="none"/>
    <rect x="0.5" y="0.5" width="39" height="39" fill="none"/>
  </g>
  <path id="Path_clipboard-check-outline" data-name="Path / clipboard-check-outline" d="M29.667,4.333H22.7a4.98,4.98,0,0,0-9.4,0H6.333A3.333,3.333,0,0,0,3,7.667V31a3.333,3.333,0,0,0,3.333,3.333H29.667A3.333,3.333,0,0,0,33,31V7.667a3.333,3.333,0,0,0-3.333-3.333M18,4.333A1.667,1.667,0,1,1,16.333,6,1.667,1.667,0,0,1,18,4.333M9.667,11H26.333V7.667h3.333V31H6.333V7.667H9.667V11M10.5,21.833l2.5-2.5,3.333,3.333,7.5-7.5,2.5,2.5-10,10Z" transform="translate(2 2.333)" fill="#ff9880"/>
</svg>
