<svg xmlns="http://www.w3.org/2000/svg" xmlns:xlink="http://www.w3.org/1999/xlink" width="1340" height="1105" viewBox="0 0 1340 1105">
  <defs>
    <clipPath id="clip-path">
      <rect id="Retângulo_187" data-name="Retângulo 187" width="1340" height="1103" transform="translate(104.692 -90.308)" fill="#fff" stroke="#707070" stroke-width="1"/>
    </clipPath>
  </defs>
  <g id="Grupo_133" data-name="Grupo 133" transform="translate(0 -2759)">
    <rect id="Retângulo_118" data-name="Retângulo 118" width="1340" height="1105" transform="translate(0 2759)" fill="#58355e"/>
    <g id="formas" transform="translate(-104.692 2851.308)">
      <g id="Grupo_de_máscara_18" data-name="Grupo de máscara 18" clip-path="url(#clip-path)">
        <path id="Caminho_19" data-name="Caminho 19" d="M1085.31,255.5c0,135.1-109.519,244.615-244.617,244.615S596.077,390.6,596.077,255.5,705.6,10.885,840.692,10.885,1085.31,120.4,1085.31,255.5" transform="translate(-630.693 -84.501)" fill="#ff9880" opacity="0.17"/>
        <path id="Caminho_20" data-name="Caminho 20" d="M150,0A150,150,0,0,0,0,150H300A150,150,0,0,0,150,0" transform="translate(254.692 707) rotate(90)" fill="#ff9880" opacity="0.22"/>
        <path id="Caminho_16" data-name="Caminho 16" d="M676.077,50.885a40,40,0,1,1-40-40,40,40,0,0,1,40,40" transform="translate(688.615 185.499)" fill="#ff9880" opacity="0.24"/>
        <path id="Caminho_17" data-name="Caminho 17" d="M0,147.3a100,100,0,0,0,100,100v-100Z" transform="translate(660 232.701)" fill="#78407d"/>
        <path id="Caminho_18" data-name="Caminho 18" d="M0,147.3a100,100,0,0,0,100,100v-100Z" transform="translate(407.299 380) rotate(90)" fill="#937cbf" opacity="0.05"/>
        <path id="Caminho_37" data-name="Caminho 37" d="M0,147.3a134,134,0,0,0,134,134v-134Z" transform="translate(1326.694 215.703)" fill="#ff9880" opacity="0.16"/>
      </g>
    </g>
  </g>
</svg>
