<svg id="Componente_28_1" data-name="Componente 28 – 1" xmlns="http://www.w3.org/2000/svg" width="130.643" height="20" viewBox="0 0 130.643 20">
  <path id="Caminho_70" data-name="Caminho 70" d="M773.046-51.764h-2.94l-.254,1.248a4.52,4.52,0,0,0-3.321-1.5c-3.132,0-4.823,2.411-4.823,6.05,0,3.68,1.8,5.5,4.612,5.5a4.068,4.068,0,0,0,3.279-1.5v.655c0,1.862-.762,2.411-2.433,2.411a14.629,14.629,0,0,1-3.342-.465l-.528,2.517a12.406,12.406,0,0,0,4.167.72c3.828,0,5.584-1.311,5.584-5.267Zm-3.6,7.53a2.627,2.627,0,0,1-1.926.867c-1.416,0-2.03-1.036-2.03-2.813,0-1.945.718-2.876,1.945-2.876a2.938,2.938,0,0,1,2.011.888Zm8.5-7.53H775.14v11.19h3.595v-7.15a2.608,2.608,0,0,1,1.8-.994,3.391,3.391,0,0,1,1.143.169l.254-3.216a2.959,2.959,0,0,0-1.185-.254,2.975,2.975,0,0,0-2.411,1.756Zm15.357,11.19v-11.19h-3.575v7.7a2.39,2.39,0,0,1-1.819.825c-.974,0-1.312-.635-1.312-1.756v-6.769h-3.618v7.658c0,2.411,1.121,3.807,3.639,3.807a4.367,4.367,0,0,0,3.427-1.608l.381,1.333Zm5.668-7.466a3.206,3.206,0,0,1,2.073-1.058c1.29,0,1.863.995,1.863,2.983,0,2.094-.762,2.877-1.9,2.877a3.254,3.254,0,0,1-2.031-.889Zm0,11.7v-5.161a4.432,4.432,0,0,0,3.068,1.185c3.088,0,4.7-2.179,4.7-5.922,0-4-1.967-5.775-4.485-5.775a4.629,4.629,0,0,0-3.533,1.544l-.4-1.29h-2.939v15.42Zm12.8-9.836c0-2.03.846-2.94,2.1-2.94,1.226,0,2.073.825,2.073,2.94,0,2.158-.868,2.941-2.073,2.941-1.249,0-2.1-.783-2.1-2.941m-3.787.085c0,3.829,2.243,5.8,5.712,5.8,3.406,0,6.029-1.967,6.029-5.881s-2.538-5.838-5.817-5.838-5.923,1.946-5.923,5.922m16.2-5.669h-2.812v11.19h3.6v-7.15a2.6,2.6,0,0,1,1.8-.994,3.386,3.386,0,0,1,1.143.169l.254-3.216a2.955,2.955,0,0,0-1.185-.254,2.974,2.974,0,0,0-2.411,1.756Zm13.877,7.8a7.839,7.839,0,0,1-3.3.825,2.129,2.129,0,0,1-2.306-2.01h6.9c.042-.254.063-1.268.063-1.586,0-3.554-1.84-5.288-5.1-5.288-3.491,0-5.668,2.326-5.668,5.944,0,3.638,2.072,5.774,5.626,5.774A8.4,8.4,0,0,0,839-41.716Zm-5.605-3.363a1.96,1.96,0,0,1,1.9-2.031c1.248,0,1.649.889,1.649,2.031Zm12.141-.719A3.211,3.211,0,0,1,846.68-49.1c1.29,0,1.862.995,1.862,2.983,0,2.094-.762,2.877-1.9,2.877a3.251,3.251,0,0,1-2.031-.889Zm0,11.7v-5.161a4.435,4.435,0,0,0,3.068,1.185c3.088,0,4.7-2.179,4.7-5.922,0-4-1.967-5.775-4.484-5.775a4.631,4.631,0,0,0-3.534,1.544l-.4-1.29H841.01v15.42Zm12.8-9.836c0-2.03.847-2.94,2.1-2.94,1.227,0,2.073.825,2.073,2.94,0,2.158-.867,2.941-2.073,2.941-1.248,0-2.1-.783-2.1-2.941m-3.785.085c0,3.829,2.241,5.8,5.712,5.8,3.4,0,6.028-1.967,6.028-5.881s-2.539-5.838-5.817-5.838-5.922,1.946-5.922,5.922m16.2-5.669h-2.814v11.19h3.6v-7.15a2.606,2.606,0,0,1,1.8-.994,3.378,3.378,0,0,1,1.143.169l.254-3.216a2.942,2.942,0,0,0-1.184-.254,2.973,2.973,0,0,0-2.411,1.756Zm11.233,2.6v-2.6h-1.819v-3.321h-3.174l-.339,3.342-1.585.551v2.03h1.522v6.05a2.528,2.528,0,0,0,2.856,2.813,8.228,8.228,0,0,0,2.686-.444l-.316-2.411a3.279,3.279,0,0,1-.91.147c-.508,0-.74-.211-.74-.782v-5.373Z" transform="translate(-761.707 56.133)" fill="#bebebe"/>
  <path id="Caminho_71" data-name="Caminho 71" d="M942.924-33.626a2.473,2.473,0,0,1-2.474,2.472,2.473,2.473,0,0,1-2.476-2.472A2.476,2.476,0,0,1,940.45-36.1a2.476,2.476,0,0,1,2.474,2.474" transform="translate(-812.281 50.693)" fill="#bebebe"/>
  <path id="Caminho_72" data-name="Caminho 72" d="M942.924-54.082a2.475,2.475,0,0,1-2.474,2.474,2.476,2.476,0,0,1-2.476-2.474,2.476,2.476,0,0,1,2.476-2.474,2.475,2.475,0,0,1,2.474,2.474" transform="translate(-812.281 56.556)" fill="#bebebe"/>
  <path id="Caminho_73" data-name="Caminho 73" d="M942.924-43.853a2.474,2.474,0,0,1-2.474,2.473,2.475,2.475,0,0,1-2.476-2.473,2.476,2.476,0,0,1,2.476-2.474,2.475,2.475,0,0,1,2.474,2.474" transform="translate(-812.281 53.624)" fill="#bebebe"/>
</svg>
