<svg id="MDI_human-male-board" data-name="MDI / human-male-board" xmlns="http://www.w3.org/2000/svg" width="30" height="30" viewBox="0 0 30 30">
  <g id="Boundary" fill="#fa7e61" stroke="rgba(0,0,0,0)" stroke-width="1" opacity="0">
    <rect width="30" height="30" stroke="none"/>
    <rect x="0.5" y="0.5" width="29" height="29" fill="none"/>
  </g>
  <path id="Path_human-male-board" data-name="Path / human-male-board" d="M25.415,21.5A2.593,2.593,0,0,0,28,18.9V4.6A2.593,2.593,0,0,0,25.415,2H11.79a5.257,5.257,0,0,1,.7,2.6H25.415V18.9H13.78v2.6m5.171-13v2.6H11.2V28H8.61V20.2H6.024V28H3.439V17.6H1.5V11.1A2.593,2.593,0,0,1,4.085,8.5H18.951M9.9,4.6A2.585,2.585,0,1,1,7.317,2,2.593,2.593,0,0,1,9.9,4.6Z" transform="translate(0.5 0)" fill="#fa7e61"/>
</svg>
