<svg xmlns="http://www.w3.org/2000/svg" xmlns:xlink="http://www.w3.org/1999/xlink" width="201.199" height="19.613" viewBox="0 0 201.199 19.613">
  <defs>
    <clipPath id="clip-path">
      <rect id="Retângulo_142" data-name="Retângulo 142" width="201.199" height="19.613" fill="#fff"/>
    </clipPath>
  </defs>
  <g id="Grupo_111" data-name="Grupo 111" clip-path="url(#clip-path)">
    <path id="Caminho_48" data-name="Caminho 48" d="M104.835,49.461a2.422,2.422,0,1,1-2.421-2.422,2.421,2.421,0,0,1,2.421,2.422" transform="translate(-67.901 -32.609)" fill="#bf0d0d"/>
    <path id="Caminho_49" data-name="Caminho 49" d="M104.835,5.03a2.422,2.422,0,1,1-2.421-2.422,2.422,2.422,0,0,1,2.421,2.422" transform="translate(-67.901 -2.437)" fill="#bf0d0d"/>
    <path id="Caminho_50" data-name="Caminho 50" d="M104.835,27.247a2.422,2.422,0,1,1-2.421-2.422,2.421,2.421,0,0,1,2.421,2.422" transform="translate(-67.901 -17.524)" fill="#bf0d0d"/>
    <path id="Caminho_51" data-name="Caminho 51" d="M284.677,10.875a1.924,1.924,0,0,1,1.868-1.993c1.225,0,1.619.872,1.619,1.993Zm5.5,3.3a7.7,7.7,0,0,1-3.238.81,2.091,2.091,0,0,1-2.263-1.972h6.767c.042-.249.062-1.245.062-1.557,0-3.487-1.806-5.189-5-5.189-3.425,0-5.563,2.283-5.563,5.833,0,3.57,2.034,5.667,5.521,5.667a8.233,8.233,0,0,0,4.629-1.391Zm-14.157-.228a2.508,2.508,0,0,1-1.868.934c-1.515,0-2.013-1.225-2.013-2.885,0-1.951.727-2.823,1.972-2.823a2.708,2.708,0,0,1,1.909.851Zm.436,3.549h3.093V2.552h-3.508V7.471a4.165,4.165,0,0,0-2.947-1.2c-2.532,0-4.67,1.91-4.67,5.77,0,3.612,1.494,5.729,4.525,5.729a3.911,3.911,0,0,0,3.3-1.6Zm-9.4-7.057c0-2.948-1.619-4.172-4.587-4.172a8.284,8.284,0,0,0-4.795,1.578l1.1,2.1a6.453,6.453,0,0,1,3.2-.955,1.363,1.363,0,0,1,1.557,1.515v.6a9.863,9.863,0,0,0-1.432-.083c-3.549,0-4.961,1.578-4.961,3.467,0,2.221,1.453,3.279,3.466,3.279a3.991,3.991,0,0,0,3.342-1.557l.311,1.287h2.8Zm-3.529,3.176a1.655,1.655,0,0,1-1.64,1.744c-.872,0-1.287-.394-1.287-1.038,0-1.038.851-1.308,1.91-1.308a4.649,4.649,0,0,1,1.017.1Zm-11.25.332a2.508,2.508,0,0,1-1.868.934c-1.515,0-2.013-1.225-2.013-2.885,0-1.951.727-2.823,1.972-2.823a2.708,2.708,0,0,1,1.91.851Zm.436,3.549H255.8V2.552H252.3V7.471a4.165,4.165,0,0,0-2.948-1.2c-2.532,0-4.67,1.91-4.67,5.77,0,3.612,1.495,5.729,4.525,5.729a3.911,3.911,0,0,0,3.3-1.6ZM243.142,6.516h-3.529V17.5h3.529ZM239.406,3.8c0,1.08.913,1.661,2.034,1.661,1.2,0,2.055-.581,2.055-1.661,0-1.142-.851-1.723-2.055-1.723-1.142,0-2.034.581-2.034,1.723m-1.764-1.245h-3.529V17.5h3.529Zm-5.48,3.964h-3.529V17.5h3.529ZM228.426,3.8c0,1.08.913,1.661,2.034,1.661,1.2,0,2.055-.581,2.055-1.661,0-1.142-.851-1.723-2.055-1.723-1.142,0-2.034.581-2.034,1.723M218.67,17.5l.311-1.266a4.018,4.018,0,0,0,3.155,1.515c3.446,0,4.94-2.138,4.94-5.812,0-3.923-2.034-5.667-4.5-5.667a4.156,4.156,0,0,0-3.114,1.287v-5H215.93V17.5Zm.789-7.286a2.575,2.575,0,0,1,1.972-1.1c1.266,0,1.91.893,1.91,2.948s-.747,2.844-1.972,2.844a2.419,2.419,0,0,1-1.91-.955Zm-5.314.228c0-2.948-1.619-4.172-4.588-4.172a8.285,8.285,0,0,0-4.795,1.578l1.1,2.1a6.456,6.456,0,0,1,3.2-.955,1.364,1.364,0,0,1,1.557,1.515v.6a9.865,9.865,0,0,0-1.432-.083c-3.549,0-4.961,1.578-4.961,3.467,0,2.221,1.453,3.279,3.466,3.279a3.992,3.992,0,0,0,3.342-1.557l.311,1.287h2.8Zm-3.529,3.176a1.655,1.655,0,0,1-1.64,1.744c-.872,0-1.287-.394-1.287-1.038,0-1.038.851-1.308,1.91-1.308a4.65,4.65,0,0,1,1.017.1Zm-7.182-4.546V6.516h-1.785V3.257h-3.114L198.2,6.537l-1.557.54V9.069h1.495v5.937a2.48,2.48,0,0,0,2.8,2.761,8.074,8.074,0,0,0,2.636-.436l-.311-2.366a3.208,3.208,0,0,1-.893.145c-.5,0-.727-.208-.727-.768V9.069ZM185.417,6.516V17.5h3.529V10.045a2.6,2.6,0,0,1,1.806-.851c.893,0,1.37.54,1.37,1.93V17.5h3.529V9.982c0-2.408-1.37-3.716-3.508-3.716a4.733,4.733,0,0,0-3.508,1.557l-.311-1.308Zm-8.22,4.359a1.924,1.924,0,0,1,1.868-1.993c1.225,0,1.619.872,1.619,1.993Zm5.5,3.3a7.694,7.694,0,0,1-3.238.81,2.091,2.091,0,0,1-2.263-1.972h6.767c.041-.249.062-1.245.062-1.557,0-3.487-1.806-5.189-5-5.189-3.425,0-5.563,2.283-5.563,5.833,0,3.57,2.034,5.667,5.521,5.667a8.232,8.232,0,0,0,4.629-1.391Zm-10-5.106V6.516h-1.785V3.257h-3.114l-.332,3.279-1.557.54V9.069H167.4v5.937a2.48,2.48,0,0,0,2.8,2.761,8.077,8.077,0,0,0,2.636-.436l-.311-2.366a3.21,3.21,0,0,1-.893.145c-.5,0-.726-.208-.726-.768V9.069Zm-17.249,6.684a7.378,7.378,0,0,0,5.148,2.013c2.8,0,4.566-1.329,4.566-3.736,0-1.951-1.1-2.719-3.342-3.383-1.557-.457-2.076-.623-2.076-1.121,0-.457.374-.664,1.079-.664a6.231,6.231,0,0,1,2.927,1.059L165.2,8.031a6.608,6.608,0,0,0-4.608-1.764c-2.781,0-4.567,1.391-4.567,3.591,0,1.993,1.183,2.885,3.467,3.425,1.536.374,1.868.581,1.868,1.121,0,.415-.311.706-1.1.706a7.026,7.026,0,0,1-3.384-1.308ZM154.22,17.5V6.516h-3.508v7.556a2.346,2.346,0,0,1-1.785.809c-.955,0-1.287-.623-1.287-1.723V6.516h-3.55V14.03c0,2.366,1.1,3.736,3.57,3.736a4.283,4.283,0,0,0,3.363-1.578L151.4,17.5Zm-21.235-1.744a7.378,7.378,0,0,0,5.148,2.013c2.8,0,4.566-1.329,4.566-3.736,0-1.951-1.1-2.719-3.342-3.383-1.557-.457-2.076-.623-2.076-1.121,0-.457.374-.664,1.079-.664a6.231,6.231,0,0,1,2.927,1.059l1.453-1.889a6.608,6.608,0,0,0-4.608-1.764c-2.781,0-4.567,1.391-4.567,3.591,0,1.993,1.183,2.885,3.467,3.425,1.536.374,1.868.581,1.868,1.121,0,.415-.311.706-1.1.706a7.025,7.025,0,0,1-3.383-1.308Z" transform="translate(-90.307 -2.074)" fill="#fff"/>
    <path id="Caminho_52" data-name="Caminho 52" d="M26.05,11.7V9.142H24.265V5.883H21.151l-.332,3.28L19.262,9.7V11.7h1.495v5.936a2.48,2.48,0,0,0,2.8,2.761,8.07,8.07,0,0,0,2.636-.436l-.312-2.366a3.22,3.22,0,0,1-.892.145c-.5,0-.727-.208-.727-.768V11.7ZM11,24.274V19.209a4.347,4.347,0,0,0,3.01,1.162c3.03,0,4.608-2.138,4.608-5.812,0-3.923-1.931-5.666-4.4-5.666a4.54,4.54,0,0,0-3.466,1.515l-.394-1.266H7.472V24.274ZM11,12.8a3.147,3.147,0,0,1,2.034-1.038c1.266,0,1.826.976,1.826,2.927,0,2.055-.747,2.823-1.868,2.823A3.19,3.19,0,0,1,11,16.635ZM2.761,9.142H0V20.122H3.529V13.107a2.555,2.555,0,0,1,1.764-.976,3.336,3.336,0,0,1,1.121.166l.249-3.155A2.9,2.9,0,0,0,5.5,8.893a2.92,2.92,0,0,0-2.366,1.723Z" transform="translate(0 -4.661)" fill="#bf0d0d"/>
  </g>
</svg>
