<svg xmlns="http://www.w3.org/2000/svg" xmlns:xlink="http://www.w3.org/1999/xlink" width="131" height="33.139" viewBox="0 0 131 33.139">
  <defs>
    <clipPath id="clip-path">
      <rect id="Retângulo_5" data-name="Retângulo 5" width="131" height="33.139" fill="#fffcf2"/>
    </clipPath>
  </defs>
  <g id="Grupo_3" data-name="Grupo 3" clip-path="url(#clip-path)">
    <path id="Caminho_1" data-name="Caminho 1" d="M108.434,48.782a4.094,4.094,0,1,1-4.092-4.094,4.092,4.092,0,0,1,4.092,4.094" transform="translate(-45.872 -20.449)" fill="#fffcf2"/>
    <path id="Caminho_2" data-name="Caminho 2" d="M108.434,48.782a4.094,4.094,0,1,1-4.092-4.094,4.092,4.092,0,0,1,4.092,4.094" transform="translate(-45.872 -20.449)" fill="#fffcf2" stroke="#78407d" stroke-width="0.514"/>
    <path id="Caminho_3" data-name="Caminho 3" d="M108.434,4.351A4.094,4.094,0,1,1,104.342.257a4.094,4.094,0,0,1,4.092,4.094" transform="translate(-45.872 -0.117)" fill="#fffcf2"/>
    <path id="Caminho_4" data-name="Caminho 4" d="M108.434,4.351A4.094,4.094,0,1,1,104.342.257a4.094,4.094,0,0,1,4.092,4.094" transform="translate(-45.872 -0.117)" fill="#fffcf2" stroke="#78407d" stroke-width="0.514"/>
    <path id="Caminho_5" data-name="Caminho 5" d="M108.434,26.568a4.094,4.094,0,1,1-4.092-4.094,4.093,4.093,0,0,1,4.092,4.094" transform="translate(-45.872 -10.284)" fill="#fffcf2"/>
    <path id="Caminho_6" data-name="Caminho 6" d="M108.434,26.568a4.094,4.094,0,1,1-4.092-4.094,4.093,4.093,0,0,1,4.092,4.094" transform="translate(-45.872 -10.284)" fill="#fffcf2" stroke="#78407d" stroke-width="0.514"/>
    <path id="Caminho_7" data-name="Caminho 7" d="M192.3,26.47V7.911h-5.929v12.77a3.966,3.966,0,0,1-3.017,1.368c-1.614,0-2.175-1.052-2.175-2.912V7.911h-6v12.7c0,4,1.859,6.315,6.034,6.315a7.24,7.24,0,0,0,5.683-2.666l.631,2.21Zm-26-6a4.238,4.238,0,0,1-3.157,1.578c-2.561,0-3.4-2.07-3.4-4.876,0-3.3,1.228-4.772,3.333-4.772A4.577,4.577,0,0,1,166.3,13.84Zm.737,6h5.228V1.21h-5.929V9.525a7.04,7.04,0,0,0-4.982-2.035c-4.28,0-7.894,3.227-7.894,9.753,0,6.1,2.526,9.683,7.648,9.683a6.609,6.609,0,0,0,5.579-2.7ZM140.268,15.278a3.251,3.251,0,0,1,3.157-3.368c2.07,0,2.736,1.473,2.736,3.368Zm9.3,5.578a13,13,0,0,1-5.473,1.368,3.534,3.534,0,0,1-3.824-3.333H151.7c.071-.421.106-2.105.106-2.631,0-5.894-3.053-8.771-8.455-8.771-5.789,0-9.4,3.859-9.4,9.858,0,6.034,3.438,9.578,9.332,9.578a13.914,13.914,0,0,0,7.824-2.351Z" transform="translate(-61.296 -0.554)" fill="#fffcf2"/>
    <path id="Caminho_8" data-name="Caminho 8" d="M44.286,13.356V9.04H41.268V3.532H36.006l-.561,5.543-2.631.912v3.368h2.526V23.389c0,2.877,1.438,4.666,4.736,4.666a13.638,13.638,0,0,0,4.456-.737l-.527-4a5.442,5.442,0,0,1-1.508.246c-.842,0-1.228-.351-1.228-1.3V13.356ZM18.851,34.616v-8.56a7.347,7.347,0,0,0,5.087,1.965c5.122,0,7.788-3.614,7.788-9.823,0-6.631-3.263-9.578-7.438-9.578A7.673,7.673,0,0,0,18.43,11.18l-.667-2.14H12.886V34.616Zm0-19.4a5.319,5.319,0,0,1,3.438-1.754c2.14,0,3.087,1.649,3.087,4.947,0,3.473-1.263,4.771-3.157,4.771A5.392,5.392,0,0,1,18.851,21.7ZM4.923,9.04H.257V27.6H6.221V15.741A4.318,4.318,0,0,1,9.2,14.092a5.638,5.638,0,0,1,1.895.28l.421-5.332a4.9,4.9,0,0,0-1.965-.421,4.936,4.936,0,0,0-4,2.912Z" transform="translate(-0.118 -1.616)" fill="#fffcf2"/>
    <path id="Caminho_9" data-name="Caminho 9" d="M44.286,13.356V9.04H41.268V3.532H36.006l-.561,5.543-2.631.912v3.368h2.526V23.389c0,2.877,1.438,4.666,4.736,4.666a13.638,13.638,0,0,0,4.456-.737l-.527-4a5.442,5.442,0,0,1-1.508.246c-.842,0-1.228-.351-1.228-1.3V13.356ZM18.851,34.616v-8.56a7.347,7.347,0,0,0,5.087,1.965c5.122,0,7.788-3.614,7.788-9.823,0-6.631-3.263-9.578-7.438-9.578A7.673,7.673,0,0,0,18.43,11.18l-.667-2.14H12.886V34.616Zm0-19.4a5.319,5.319,0,0,1,3.438-1.754c2.14,0,3.087,1.649,3.087,4.947,0,3.473-1.263,4.771-3.157,4.771A5.392,5.392,0,0,1,18.851,21.7ZM4.923,9.04H.257V27.6H6.221V15.741A4.318,4.318,0,0,1,9.2,14.092a5.638,5.638,0,0,1,1.895.28l.421-5.332a4.9,4.9,0,0,0-1.965-.421,4.936,4.936,0,0,0-4,2.912Z" transform="translate(-0.118 -1.616)" fill="#fffcf2" stroke="#78407d" stroke-width="0.514"/>
  </g>
</svg>
