<svg xmlns="http://www.w3.org/2000/svg" width="24" height="24" viewBox="0 0 24 24">
  <g id="MDI_tag-outline" data-name="MDI / tag-outline" opacity="0.7">
    <g id="Boundary" fill="#fffcf2" stroke="rgba(0,0,0,0)" stroke-width="1" opacity="0">
      <rect width="24" height="24" stroke="none"/>
      <rect x="0.5" y="0.5" width="23" height="23" fill="none"/>
    </g>
    <path id="Path_tag-outline" data-name="Path / tag-outline" d="M21.41,11.58l-9-9A2,2,0,0,0,11,2H4A2,2,0,0,0,2,4v7a2,2,0,0,0,.59,1.42l9,9a1.992,1.992,0,0,0,2.82-.01l7-7a1.992,1.992,0,0,0,0-2.83M13,20,4,11V4h7l9,9M6.5,5A1.5,1.5,0,1,1,5,6.5,1.5,1.5,0,0,1,6.5,5Z" fill="#fffcf2"/>
  </g>
</svg>
