<svg xmlns="http://www.w3.org/2000/svg" xmlns:xlink="http://www.w3.org/1999/xlink" width="213.606" height="75.156" viewBox="0 0 213.606 75.156">
  <defs>
    <clipPath id="clip-path">
      <rect id="Retângulo_117" data-name="Retângulo 117" width="213.606" height="75.156" fill="#fa7e61"/>
    </clipPath>
  </defs>
  <g id="Grupo_22" data-name="Grupo 22" transform="translate(0 0)">
    <g id="Grupo_21" data-name="Grupo 21" transform="translate(0 0)" clip-path="url(#clip-path)">
      <path id="Caminho_29" data-name="Caminho 29" d="M55.163,29.313l-6.5-14.452h4.378l4.149,9.765h.041l4.149-9.765h4.376L59.229,29.313Zm19.8,0-.826-2.064H67.425L66.6,29.313H62.491l6.4-14.452h3.756l6.421,14.452Zm-6.151-5.471h3.944l-1.963-4.851h-.041Zm11.642,5.471V14.861h4.068v10.9h7.246v3.552Zm12.512-5.574V14.861h4.066v8.485a2.525,2.525,0,0,0,2.849,2.87c1.858,0,2.808-.928,2.808-2.87V14.861h4.066v8.878c0,3.777-2.58,6.006-6.874,6.006-4.356,0-6.915-2.208-6.915-6.006m15.668,5.574V14.861h11.334v3.531H112.7v2H119.3v3.242H112.7v2.146h7.308v3.531ZM61.192,44.1l3.263,4.872H60l-2.829-4.479H54.937v4.479H50.871V34.523h7.886c3.219,0,5.553,1.754,5.553,4.954a4.722,4.722,0,0,1-3.118,4.583Zm-2.745-3.014c1.074,0,1.8-.537,1.8-1.589,0-1.074-.661-1.57-1.777-1.57H54.937v3.159Zm7.576,7.886V34.523H77.357v3.529H70.091v2H76.7V43.3H70.091v2.147H77.4v3.529Zm13.254,0V34.523h7.886c3.241,0,5.553,1.837,5.553,5.161s-2.312,5.1-5.553,5.1h-3.82v4.19Zm4.066-7.6h3.428A1.732,1.732,0,0,0,88.649,39.6a1.607,1.607,0,0,0-1.818-1.672H83.343Zm10.446.372c0-4.541,3.262-7.659,7.824-7.659a7.41,7.41,0,0,1,7.8,7.659,7.41,7.41,0,0,1-7.8,7.659c-4.562,0-7.824-3.118-7.824-7.659m11.56,0c0-2.5-1.444-4.13-3.737-4.13-2.27,0-3.756,1.632-3.756,4.13s1.486,4.13,3.756,4.13c2.292,0,3.737-1.632,3.737-4.13M121.1,44.1l3.262,4.872H119.9l-2.828-4.479h-2.23v4.479H110.78V34.523h7.886c3.221,0,5.554,1.754,5.554,4.954A4.722,4.722,0,0,1,121.1,44.06Zm-2.746-3.014c1.074,0,1.8-.537,1.8-1.589,0-1.074-.661-1.57-1.775-1.57h-3.531v3.159Zm11.851,7.886V38.052H125.23V34.523h14.06v3.529h-5.017V48.973Zm10.549-14.45h4.066V48.975h-4.066Zm5.863,14.45V34.523h4.149l6.008,8.568h.041V34.523h4.068v14.45h-4.149l-6.008-8.566h-.042v8.566Zm15.834-7.225c0-4.521,3.262-7.659,7.907-7.659,3.572,0,6.3,1.982,7,4.789l-3.8,1.074a3.147,3.147,0,0,0-3.2-2.333c-2.333,0-3.841,1.632-3.841,4.13s1.508,4.13,3.841,4.13c1.981,0,2.993-.723,3.179-2h-3.1V41.108h7.019v2.023c0,3.88-2.7,6.275-7.1,6.275-4.645,0-7.907-3.138-7.907-7.659M50.871,68.645V54.193H62.348v3.531H54.937v2.931h7.205v3.3H54.937v4.686Zm12.9-7.225c0-4.542,3.262-7.659,7.824-7.659a7.66,7.66,0,1,1,0,15.318c-4.562,0-7.824-3.118-7.824-7.659m11.56,0c0-2.5-1.444-4.13-3.737-4.13-2.27,0-3.758,1.632-3.758,4.13s1.488,4.128,3.758,4.128c2.292,0,3.737-1.632,3.737-4.128m5.636,1.651V54.193h4.068v8.485a2.525,2.525,0,0,0,2.849,2.87c1.857,0,2.808-.929,2.808-2.87V54.193H94.76v8.878c0,3.777-2.581,6.008-6.874,6.008-4.356,0-6.917-2.209-6.917-6.008m15.876,5.574V54.193h4.149L107,62.761h.041V54.193h4.066V68.645H106.96l-6.006-8.568h-.042v8.568Zm16.35,0V54.193h6.585c4.335,0,7.349,2.54,7.349,7.227,0,4.83-3.055,7.225-7.39,7.225Zm4.068-3.531c.532,1.847,2.126,0,2.126,0,2.353,0,3.675-1.072,3.675-3.694,0-2.56-1.3-3.7-3.675-3.7h-2.126S116.731,63.267,117.262,65.114Zm21.656,3.531-.826-2.064h-6.709l-.826,2.064h-4.108l6.4-14.452h3.758l6.421,14.452Zm-6.152-5.471h3.942l-1.961-4.851h-.041Zm13.274,5.471V57.724h-4.975V54.193h14.059v3.531h-5.017V68.645Zm10.549-14.452h4.066V68.645h-4.066Zm5.657,7.227c0-4.542,3.262-7.659,7.824-7.659a7.66,7.66,0,1,1,0,15.318c-4.562,0-7.824-3.118-7.824-7.659m11.56,0c0-2.5-1.446-4.13-3.737-4.13-2.271,0-3.758,1.632-3.758,4.13s1.486,4.128,3.758,4.128c2.291,0,3.737-1.632,3.737-4.128m5.636,7.225V54.193h4.151l6.006,8.568h.041V54.193h4.066V68.645h-4.148l-6.009-8.568h-.039v8.568Z" transform="translate(19.899 6.077)" fill="#22223b"/>
      <path id="Caminho_30" data-name="Caminho 30" d="M55.052,0V55.052H0L19.662,35.39H35.39V19.662Z" transform="translate(0 0)" fill="#f2183d"/>
    </g>
  </g>
</svg>
